<svg width="117" height="32" viewBox="0 0 117 32" xmlns="http://www.w3.org/2000/svg">
    <g fill="none" fill-rule="evenodd">
        <path
            d="M113.808 14.114a5.107 5.107 0 0 0-2.793-.8 5.998 5.998 0 0 0-2.964.8l.038-.362a.198.198 0 0 0-.198-.219h-1.29a1.27 1.27 0 0 0-1.267 1.133l-.438 4.145-.769 7.257a.198.198 0 0 0 .198.219h1.29a1.27 1.27 0 0 0 1.267-1.133l.175-1.647.497-4.696c.167-1.58 1.591-2.859 3.182-2.859 1.578 0 2.726 1.262 2.578 2.825l-.007.068-.494 4.663-.27 2.56a.198.198 0 0 0 .197.219h1.29a1.27 1.27 0 0 0 1.267-1.133l.665-6.276.014-.135c.184-1.961-.692-3.676-2.168-4.63M60.153 18.743l.875-8.291a.196.196 0 0 0-.196-.217h-1.294c-.65 0-1.195.49-1.263 1.134l-.622 5.899h-7.968l.719-6.816a.196.196 0 0 0-.196-.217h-1.294c-.65 0-1.195.49-1.263 1.134l-.622 5.899-.156 1.475-.795 7.547a.196.196 0 0 0 .195.217h1.294c.65 0 1.195-.49 1.263-1.134l.622-5.899h7.968l-.719 6.816a.196.196 0 0 0 .196.217h1.294c.65 0 1.195-.49 1.263-1.134l.622-5.899.077-.731z"
            fill="#202A44" fill-opacity="0.8" />
        <path
            d="M68.531 23.868c-2.173 0-3.75-1.772-3.522-3.958.228-2.186 2.176-3.958 4.35-3.958 2.129 0 3.68 1.7 3.53 3.823l-.028.265c-.29 2.125-2.2 3.828-4.33 3.828zm6.997-4.235c.223-3.514-2.363-6.32-5.893-6.32-3.624 0-6.87 2.954-7.25 6.597-.381 3.643 2.247 6.597 5.87 6.597 1.477 0 2.89-.49 4.074-1.319l-.092.883a.195.195 0 0 0 .193.216h1.278c.643 0 1.182-.489 1.248-1.132l.517-4.99c.012-.085.024-.17.033-.255.01-.092.016-.184.022-.276zM79.01 26.287h-1.293a.196.196 0 0 1-.196-.216l1.206-11.407a1.266 1.266 0 0 1 1.262-1.13h1.292c.117 0 .208.1.196.215L80.27 25.157a1.266 1.266 0 0 1-1.262 1.13M81.91 10.015c-.09.85-.847 1.54-1.692 1.54-.846 0-1.459-.69-1.37-1.54.089-.85.846-1.539 1.691-1.539.846 0 1.459.69 1.37 1.54"
            fill="#032FFF" fill-opacity="0.8" />
        <path d="M93.02 21.12l-.005.067.014-.135-.009.067" fill="#202A44" fill-opacity="0.8" />
        <path
            d="M101.975 13.533c-.65 0-1.196.488-1.264 1.13l-.175 1.65-.497 4.697c-.167 1.578-1.592 2.858-3.182 2.858-1.579 0-2.726-1.262-2.579-2.825l.008-.067.493-4.664.272-2.563a.196.196 0 0 0-.196-.216H93.56c-.65 0-1.196.488-1.264 1.13l-.665 6.28-.014.134c-.184 1.961.692 3.676 2.168 4.63.785.507 1.739.8 2.793.8a5.999 5.999 0 0 0 2.964-.801c1.696-.965 2.944-2.708 3.155-4.696l.768-7.26a.196.196 0 0 0-.195-.217h-1.295zM89.365 23.916a.192.192 0 0 0-.23-.145c-.254.064-.48.088-.657.088-.72 0-1.242-.592-1.166-1.323l.364-3.52.321-3.099h.832c.638 0 1.173-.49 1.24-1.134l.089-.856a.195.195 0 0 0-.192-.216h-1.74l.337-3.26a.195.195 0 0 0-.192-.216H87.1c-.638 0-1.173.49-1.24 1.134l-.242 2.342h-.833c-.638 0-1.173.49-1.24 1.134l-.088.855a.195.195 0 0 0 .192.217h1.74l-.684 6.619a3.828 3.828 0 0 0 .14 1.523 3.53 3.53 0 0 0 .512 1.027 3.393 3.393 0 0 0 .973.897c.024.015.047.032.072.046a3.465 3.465 0 0 0 1.048.397 3.584 3.584 0 0 0 .753.08 6.36 6.36 0 0 0 1.938-.288.196.196 0 0 0 .1-.29 6.78 6.78 0 0 1-.877-2.012"
            fill="#202A44" fill-opacity="0.8" />
        <path
            d="M26.591 9.017a.99.99 0 1 1-.024-1.98.99.99 0 0 1 .024 1.98m9.985 1.834c-1.195-.562-1.88-.944-2.742-1.365a2.068 2.068 0 0 1-.97-.97c-1.24-2.648-3.61-4.599-6.51-5.234-3.447-.756-6.975-.353-6.975-.353-2.832-1.25-8.238-1.872-10.652-1.867a.321.321 0 0 0-.22.553c1.286 1.237 2.25 2.102 3.155 3.671l-.001.004C2.12 10.484-.206 22.66 1.528 30.902c.065.31.484.366.632.087 3.676-6.934 8.094-11.417 14.276-14.43 8.197-3.992 14.24-3.328 19.65-3.3 1.38.03 1.74-1.821.49-2.408"
            fill="#032FFF" fill-opacity="0.8" />
        <path
            d="M30.806 21.85a.991.991 0 0 1-1.046-.934.994.994 0 0 1 .927-1.055.991.991 0 0 1 1.046.934.994.994 0 0 1-.927 1.055m7.45 1.151c-.703-.345-1.075-.491-1.669-.83a1.852 1.852 0 0 1-.794-.952c-.693-1.79-2.242-3.491-4.126-3.97C22.778 14.317 9.45 21.981 5.656 30.53c-.172.389.272.76.617.516 3.514-2.496 9.752-4.709 14.733-4.184.076.008.127.082.12.159-.02.19-.071.67-.083.815-.07.842-.091 1.676-.069 2.5.008.274.33.417.533.235a22.287 22.287 0 0 1 4.346-3.06l.037-.02a21.86 21.86 0 0 1 8.97-2.549c.385-.024 1.688-.077 2.226-.06.212.006.432.005.589.018l.063.005c1.1.095 1.512-1.416.519-1.904"
            fill="#032FFF" fill-opacity="0.8" />
    </g>
</svg>